<?xml version="1.0" encoding="UTF-8"?>
<svg version="1.1" xmlns="http://www.w3.org/2000/svg" width="2000" height="2000">
<path d="M0 0 C1.24347754 0.00093588 2.48695507 0.00187177 3.76811375 0.00283601 C4.46557013 -0.00483251 5.16302652 -0.01250102 5.88161795 -0.02040192 C8.23564458 -0.03888466 10.58728774 -0.01435104 12.94123639 0.00974002 C14.64621864 0.00530441 16.35119573 -0.00176474 18.05615743 -0.01123897 C22.77170792 -0.02972777 27.48648756 -0.01054263 32.20198087 0.01442983 C37.32039408 0.03497139 42.43872623 0.02082251 47.55715479 0.01096489 C56.53773647 -0.00150153 65.51808014 0.00842558 74.49863423 0.03279414 C87.85244508 0.06892909 101.20610511 0.07081601 114.55995593 0.06554221 C137.02061625 0.05764902 159.4811598 0.07770071 181.94178189 0.11364665 C204.18902516 0.14916612 226.43622493 0.17229411 248.68349637 0.17876353 C249.37408719 0.17897 250.06467802 0.17917647 250.77619583 0.1793892 C257.083562 0.18126836 263.3909282 0.18299451 269.69829445 0.18453705 C285.37858764 0.18837372 301.05887981 0.19412983 316.73917188 0.20118823 C317.81031027 0.20166809 317.81031027 0.20166809 318.90308782 0.20215764 C353.65028823 0.21789157 388.39745991 0.25573889 423.14463986 0.29539027 C435.20459651 0.30914008 447.26455326 0.32279218 459.32451047 0.33603968 C460.07245731 0.33686138 460.82040416 0.33768307 461.59101606 0.33852967 C496.35296919 0.37658527 531.11492726 0.39894482 565.87689576 0.41724846 C568.13331826 0.41843684 570.38974076 0.419632 572.64616325 0.42082853 C587.59943437 0.42874713 602.55270563 0.43639504 617.50597699 0.44386169 C647.2599682 0.45872119 677.01395848 0.4751713 706.76794823 0.49271397 C708.18495126 0.49354941 709.60195428 0.49438374 711.01895731 0.49521695 C796.61351992 0.54555975 882.20805088 0.62928944 993.87852658 0.74802699 C995.96534914 4.43885868 998.05196104 8.12980942 1000.13853635 11.8207809 C1001.02033441 13.38035266 1001.02033441 13.38035266 1001.91994657 14.97143092 C1005.90073309 22.01341427 1009.8695123 29.06177215 1013.81602658 36.12302699 C1014.38828977 37.14573695 1014.96055295 38.16844691 1015.55015744 39.22214808 C1017.91718258 43.45236985 1020.28306737 47.68322899 1022.6490344 51.91404261 C1029.40084451 63.98602558 1036.17008959 76.04753725 1042.98423947 88.08445277 C1047.56416167 96.17955363 1052.1082032 104.29446863 1056.64805783 112.41208949 C1060.54010695 119.36772494 1064.45186431 126.31187903 1068.37852658 133.24802699 C1073.49587462 142.28743008 1078.57785839 151.34616995 1083.64805783 160.41208949 C1087.54010695 167.36772494 1091.45186431 174.31187903 1095.37852658 181.24802699 C1100.49587462 190.28743008 1105.57785839 199.34616995 1110.64805783 208.41208949 C1114.54010714 215.36772527 1118.451924 222.31184502 1122.37852658 229.24802699 C1129.84785297 242.44440408 1137.24789103 255.67934499 1144.6490344 268.91404261 C1151.40084451 280.98602558 1158.17008959 293.04753725 1164.98423947 305.08445277 C1169.56416167 313.17955363 1174.1082032 321.29446863 1178.64805783 329.41208949 C1182.54010695 336.36772494 1186.45186431 343.31187903 1190.37852658 350.24802699 C1195.49587462 359.28743008 1200.57785839 368.34616995 1205.64805783 377.41208949 C1209.54010714 384.36772527 1213.451924 391.31184502 1217.37852658 398.24802699 C1224.84785297 411.44440408 1232.24789103 424.67934499 1239.6490344 437.91404261 C1246.40084451 449.98602558 1253.17008959 462.04753725 1259.98423947 474.08445277 C1264.56416167 482.17955363 1269.1082032 490.29446863 1273.64805783 498.41208949 C1277.54010695 505.36772494 1281.45186431 512.31187903 1285.37852658 519.24802699 C1290.49587462 528.28743008 1295.57785839 537.34616995 1300.64805783 546.41208949 C1304.54010695 553.36772494 1308.45186431 560.31187903 1312.37852658 567.24802699 C1317.49587462 576.28743008 1322.57785839 585.34616995 1327.64805783 594.41208949 C1331.54010714 601.36772527 1335.451924 608.31184502 1339.37852658 615.24802699 C1346.84785297 628.44440408 1354.24789103 641.67934499 1361.6490344 654.91404261 C1368.40084451 666.98602558 1375.17008959 679.04753725 1381.98423947 691.08445277 C1386.56416167 699.17955363 1391.1082032 707.29446863 1395.64805783 715.41208949 C1399.54010695 722.36772494 1403.45186431 729.31187903 1407.37852658 736.24802699 C1412.49587462 745.28743008 1417.57785839 754.34616995 1422.64805783 763.41208949 C1426.54010695 770.36772494 1430.45186431 777.31187903 1434.37852658 784.24802699 C1439.49587462 793.28743008 1444.57785839 802.34616995 1449.64805783 811.41208949 C1454.06687342 819.3091302 1458.51445731 827.18953073 1462.97300901 835.0641891 C1465.83400936 840.12066881 1468.68527907 845.18237927 1471.52305783 850.25193324 C1472.13197873 851.33804896 1472.74089963 852.42416468 1473.36827268 853.54319301 C1474.57102748 855.6991624 1475.76555763 857.85974339 1476.95128049 860.0251266 C1479.39437702 864.46517987 1481.8075353 868.79164744 1484.81993283 872.87302699 C1487.13189032 876.06265986 1488.90840049 878.86752262 1489.87852658 882.74802699 C1488.61447759 887.98320337 1486.20704104 892.02681182 1483.29942502 896.5185348 C1481.31191661 899.63707892 1479.52590183 902.85787134 1477.71788205 906.08274379 C1476.21295248 908.75764445 1474.68166606 911.41595527 1473.14415158 914.07224574 C1469.7118625 920.01857245 1466.35239095 926.00441367 1463.00352658 931.99802699 C1462.4195007 933.04257045 1461.83547483 934.0871139 1461.23375119 935.16331019 C1460.04391527 937.29196661 1458.85438201 939.42079223 1457.66514768 941.5497848 C1449.73428044 955.74688247 1441.78422021 969.93263266 1433.77281369 984.08445277 C1429.78794413 991.12778663 1425.82853791 998.18509283 1421.87852658 1005.24802699 C1416.86793156 1014.20736909 1411.83023607 1023.15084673 1406.77305783 1032.08396449 C1402.78815889 1039.12749046 1398.82862665 1046.18493416 1394.87852658 1053.24802699 C1390.39817734 1061.2592475 1385.90046566 1069.26020759 1381.37852658 1077.24802699 C1374.50480262 1089.39212792 1367.68950722 1101.56865622 1360.87852658 1113.74802699 C1353.53721942 1126.87572573 1346.18264553 1139.99528959 1338.77281369 1153.08445277 C1334.78794413 1160.12778663 1330.82853791 1167.18509283 1326.87852658 1174.24802699 C1321.86793156 1183.20736909 1316.83023607 1192.15084673 1311.77305783 1201.08396449 C1307.78815889 1208.12749046 1303.82862665 1215.18493416 1299.87852658 1222.24802699 C1295.39817734 1230.2592475 1290.90046566 1238.26020759 1286.37852658 1246.24802699 C1279.50480262 1258.39212792 1272.68950722 1270.56865622 1265.87852658 1282.74802699 C1258.53721942 1295.87572573 1251.18264553 1308.99528959 1243.77281369 1322.08445277 C1239.78794413 1329.12778663 1235.82853791 1336.18509283 1231.87852658 1343.24802699 C1226.86793156 1352.20736909 1221.83023607 1361.15084673 1216.77305783 1370.08396449 C1212.78815889 1377.12749046 1208.82862665 1384.18493416 1204.87852658 1391.24802699 C1199.86793156 1400.20736909 1194.83023607 1409.15084673 1189.77305783 1418.08396449 C1185.78815889 1425.12749046 1181.82862665 1432.18493416 1177.87852658 1439.24802699 C1173.39817734 1447.2592475 1168.90046566 1455.26020759 1164.37852658 1463.24802699 C1157.50480262 1475.39212792 1150.68950722 1487.56865622 1143.87852658 1499.74802699 C1136.53721942 1512.87572573 1129.18264553 1525.99528959 1121.77281369 1539.08445277 C1117.78794413 1546.12778663 1113.82853791 1553.18509283 1109.87852658 1560.24802699 C1104.86793156 1569.20736909 1099.83023607 1578.15084673 1094.77305783 1587.08396449 C1090.78815889 1594.12749046 1086.82862665 1601.18493416 1082.87852658 1608.24802699 C1078.39817734 1616.2592475 1073.90046566 1624.26020759 1069.37852658 1632.24802699 C1062.50480262 1644.39212792 1055.68950722 1656.56865622 1048.87852658 1668.74802699 C1041.53673897 1681.87658488 1034.18426666 1694.99850682 1026.77061643 1708.08665004 C1023.98033008 1713.01626842 1021.20247557 1717.95235118 1018.44493283 1722.90037074 C1017.56708127 1724.47431605 1017.56708127 1724.47431605 1016.67149533 1726.08005824 C1015.58741385 1728.02553178 1014.50509998 1729.97199251 1013.42540158 1731.91990199 C1012.34640345 1733.85567284 1011.22368667 1735.76752974 1010.06526662 1737.6568441 C1008.21736677 1740.85658216 1007.02861819 1744.09119563 1005.81603028 1747.57746204 C1003.01974498 1754.68098907 999.90094973 1760.87319231 993.87852658 1765.74802699 C982.47445675 1770.10759215 969.38839259 1768.99220417 957.38202126 1768.76303332 C952.26829849 1768.69203347 947.1560997 1768.7607963 942.04239918 1768.81154903 C933.08502441 1768.88123482 924.13128631 1768.86191264 915.1740302 1768.78391566 C901.85542414 1768.66826111 888.53950868 1768.69019977 875.22061917 1768.73958553 C852.8140012 1768.81851534 830.40885781 1768.78428297 808.0024928 1768.68289676 C785.81361338 1768.58266817 763.62540909 1768.52653737 741.43629254 1768.53128161 C740.04228811 1768.53152373 738.64828368 1768.53176299 737.25427925 1768.5319994 C731.65230102 1768.53303146 726.05032293 1768.53439946 720.44834488 1768.53618287 C704.78946371 1768.54107041 689.13058934 1768.53793655 673.4717101 1768.52887549 C672.75868672 1768.5284664 672.04566334 1768.5280573 671.3110332 1768.5276358 C648.59564928 1768.5140697 625.88047782 1768.46594357 603.16521062 1768.39273848 C602.42859561 1768.39036566 601.69198061 1768.38799283 600.93304393 1768.38554809 C588.97111227 1768.34686283 577.00918814 1768.30597525 565.04726425 1768.26497188 C517.59044343 1768.10243375 470.13445133 1768.02985087 422.67735471 1768.04709926 C421.17688211 1768.04762988 419.67640951 1768.04815836 418.17593692 1768.04868469 C415.92738733 1768.04947442 413.67883775 1768.0502652 411.43028816 1768.05106177 C403.21625256 1768.05396905 395.00221693 1768.05670415 386.7881812 1768.05922713 C386.05157733 1768.0594612 385.31497347 1768.05969527 384.55604827 1768.05993644 C344.79987332 1768.07238591 305.04380656 1768.02158031 265.28770615 1767.94726547 C263.88636828 1767.94465665 262.48503041 1767.94204839 261.08369254 1767.93944066 C259.68489089 1767.93683325 258.28608924 1767.93422511 256.88728759 1767.93161624 C256.1958106 1767.93032739 255.50433361 1767.92903855 254.79190277 1767.92771065 C251.31024325 1767.92121045 247.82858387 1767.91464399 244.3469247 1767.90795717 C229.08192495 1767.87879594 213.81697128 1767.85719177 198.55194129 1767.85650577 C197.86393705 1767.85646908 197.1759328 1767.8564324 196.46707995 1767.8563946 C193.00304589 1767.85624046 189.53901184 1767.85619308 186.07497778 1767.85616475 C161.05038569 1767.85577904 136.02644308 1767.81172811 111.00207099 1767.69186163 C97.76153245 1767.62963301 84.52205633 1767.60287991 71.28138715 1767.62711199 C62.44567357 1767.63964594 53.61096622 1767.6051 44.775551 1767.53162056 C39.73534009 1767.4909949 34.69734118 1767.47106562 29.65704957 1767.50779909 C25.07347919 1767.54074816 20.4942962 1767.51420987 15.91124921 1767.43963851 C14.2616761 1767.42328632 12.61170894 1767.42879743 10.9623228 1767.45853307 C6.03712064 1767.54033989 1.57700695 1767.42099143 -3.12147342 1765.74802699 C-6.8742964 1761.77766898 -8.92491154 1757.76277601 -11.12147342 1752.74802699 C-11.82744179 1751.48042366 -12.54682842 1750.21996271 -13.29212771 1748.97507777 C-13.83780398 1747.97460414 -14.38348025 1746.97413051 -14.94569217 1745.94333949 C-15.88952762 1744.22099086 -15.88952762 1744.22099086 -16.85243045 1742.4638473 C-17.17133243 1741.87849208 -17.4902344 1741.29313685 -17.81880008 1740.69004359 C-19.54893168 1737.51516731 -21.29082228 1734.34674589 -23.03162967 1731.17771449 C-23.37985782 1730.54325404 -23.72808597 1729.90879359 -24.08686648 1729.25510707 C-27.26173717 1723.47718932 -30.49307973 1717.73208934 -33.74647342 1711.99802699 C-38.22969125 1704.09510061 -42.68747992 1696.17868753 -47.12147342 1688.24802699 C-51.60171091 1680.23674439 -56.09953469 1672.23584577 -60.62147342 1664.24802699 C-68.0907998 1651.0516499 -75.49083786 1637.81670899 -82.89198123 1624.58201136 C-89.64379134 1612.5100284 -96.41303642 1600.44851673 -103.22718631 1588.41160121 C-107.8071085 1580.31650035 -112.35115004 1572.20158535 -116.89100467 1564.08396449 C-120.78305378 1557.12832904 -124.69481114 1550.18417495 -128.62147342 1543.24802699 C-133.73882145 1534.2086239 -138.82080522 1525.14988403 -143.89100467 1516.08396449 C-147.78305378 1509.12832904 -151.69481114 1502.18417495 -155.62147342 1495.24802699 C-160.73882145 1486.2086239 -165.82080522 1477.14988403 -170.89100467 1468.08396449 C-174.78305397 1461.1283287 -178.69487083 1454.18420896 -182.62147342 1447.24802699 C-190.0907998 1434.0516499 -197.49083786 1420.81670899 -204.89198123 1407.58201136 C-211.64379134 1395.5100284 -218.41303642 1383.44851673 -225.22718631 1371.41160121 C-229.8071085 1363.31650035 -234.35115004 1355.20158535 -238.89100467 1347.08396449 C-242.78305378 1340.12832904 -246.69481114 1333.18417495 -250.62147342 1326.24802699 C-255.73882145 1317.2086239 -260.82080522 1308.14988403 -265.89100467 1299.08396449 C-269.78305397 1292.1283287 -273.69487083 1285.18420896 -277.62147342 1278.24802699 C-285.0907998 1265.0516499 -292.49083786 1251.81670899 -299.89198123 1238.58201136 C-306.64379134 1226.5100284 -313.41303642 1214.44851673 -320.22718631 1202.41160121 C-324.8071085 1194.31650035 -329.35115004 1186.20158535 -333.89100467 1178.08396449 C-337.78305378 1171.12832904 -341.69481114 1164.18417495 -345.62147342 1157.24802699 C-350.73882145 1148.2086239 -355.82080522 1139.14988403 -360.89100467 1130.08396449 C-364.78305378 1123.12832904 -368.69481114 1116.18417495 -372.62147342 1109.24802699 C-377.73882145 1100.2086239 -382.82080522 1091.14988403 -387.89100467 1082.08396449 C-391.78305397 1075.1283287 -395.69487083 1068.18420896 -399.62147342 1061.24802699 C-407.0907998 1048.0516499 -414.49083786 1034.81670899 -421.89198123 1021.58201136 C-428.64379134 1009.5100284 -435.41303642 997.44851673 -442.22718631 985.41160121 C-446.8071085 977.31650035 -451.35115004 969.20158535 -455.89100467 961.08396449 C-460.31190432 953.18319926 -464.76110854 945.29880851 -469.22254764 937.42087855 C-472.04821808 932.42774661 -474.86274941 927.42871912 -477.66053592 922.41990199 C-478.25350467 921.35876185 -478.84647342 920.29762172 -479.45741092 919.20432582 C-480.639549 917.08573692 -481.81928234 914.96580422 -482.99647342 912.84446254 C-485.75369906 907.89338668 -488.55567419 902.98863176 -491.51991092 898.15818324 C-492.30664187 896.86122523 -492.30664187 896.86122523 -493.10926639 895.53806605 C-494.08822559 893.93417874 -495.08370451 892.3402105 -496.0985242 890.75876918 C-496.52890994 890.05010707 -496.95929568 889.34144496 -497.40272342 888.61130824 C-497.78493045 888.0058517 -498.16713748 887.40039515 -498.56092654 886.77659144 C-499.8810735 881.99910838 -496.38146324 877.12488376 -494.10194217 873.06443324 C-493.49858035 871.98403773 -492.89521853 870.90364222 -492.27357303 869.79050746 C-491.62525515 868.6421139 -490.97693728 867.49372035 -490.30897342 866.31052699 C-489.62960361 865.09868257 -488.95065441 863.88660228 -488.27210818 862.67429652 C-486.22901801 859.0281775 -484.17614362 855.3876294 -482.12147342 851.74802699 C-481.54332889 850.7227389 -480.96518435 849.69745082 -480.36952029 848.6410934 C-477.70558067 843.91887147 -475.03615373 839.19978758 -472.36366092 834.48240199 C-468.95232848 828.45606032 -465.56577474 822.41597942 -462.18397342 816.37302699 C-461.60325076 815.33533168 -461.0225281 814.29763636 -460.42420779 813.22849574 C-458.65627568 810.06853734 -456.88878728 806.90833121 -455.12147342 803.74802699 C-447.78016626 790.62032825 -440.42559236 777.50076439 -433.01576053 764.41160121 C-429.03089096 757.36826735 -425.07148474 750.31096115 -421.12147342 743.24802699 C-416.11087839 734.28868489 -411.0731829 725.34520725 -406.01600467 716.41208949 C-402.03110573 709.36856352 -398.07157348 702.31111982 -394.12147342 695.24802699 C-389.64112417 687.23680648 -385.14341249 679.23584639 -380.62147342 671.24802699 C-373.74774945 659.10392606 -366.93245405 646.92739776 -360.12147342 634.74802699 C-352.78016626 621.62032825 -345.42559236 608.50076439 -338.01576053 595.41160121 C-334.03089096 588.36826735 -330.07148474 581.31096115 -326.12147342 574.24802699 C-321.11087839 565.28868489 -316.0731829 556.34520725 -311.01600467 547.41208949 C-307.03110573 540.36856352 -303.07157348 533.31111982 -299.12147342 526.24802699 C-294.11087839 517.28868489 -289.0731829 508.34520725 -284.01600467 499.41208949 C-280.03110573 492.36856352 -276.07157348 485.31111982 -272.12147342 478.24802699 C-267.64112417 470.23680648 -263.14341249 462.23584639 -258.62147342 454.24802699 C-251.74774945 442.10392606 -244.93245405 429.92739776 -238.12147342 417.74802699 C-230.78016626 404.62032825 -223.42559236 391.50076439 -216.01576053 378.41160121 C-212.03089096 371.36826735 -208.07148474 364.31096115 -204.12147342 357.24802699 C-199.11087839 348.28868489 -194.0731829 339.34520725 -189.01600467 330.41208949 C-185.03110573 323.36856352 -181.07157348 316.31111982 -177.12147342 309.24802699 C-172.64112417 301.23680648 -168.14341249 293.23584639 -163.62147342 285.24802699 C-156.74774945 273.10392606 -149.93245405 260.92739776 -143.12147342 248.74802699 C-135.78016626 235.62032825 -128.42559236 222.50076439 -121.01576053 209.41160121 C-117.03089096 202.36826735 -113.07148474 195.31096115 -109.12147342 188.24802699 C-104.11087839 179.28868489 -99.0731829 170.34520725 -94.01600467 161.41208949 C-90.03110573 154.36856352 -86.07157348 147.31111982 -82.12147342 140.24802699 C-77.11087839 131.28868489 -72.0731829 122.34520725 -67.01600467 113.41208949 C-63.03110573 106.36856352 -59.07157348 99.31111982 -55.12147342 92.24802699 C-50.64112417 84.23680648 -46.14341249 76.23584639 -41.62147342 68.24802699 C-37.12302391 60.30042462 -32.64457627 52.34193432 -28.18397342 44.37302699 C-27.60985721 43.34781947 -27.03574099 42.32261195 -26.44422732 41.26633754 C-23.37811353 35.78868801 -20.31862162 30.30742884 -17.26600467 24.82224574 C-16.63492801 23.69028773 -16.00385135 22.55832972 -15.35365115 21.39206996 C-14.14666205 19.22688352 -12.9416357 17.06060137 -11.73890506 14.89304652 C-10.91894046 13.42327357 -10.91894046 13.42327357 -10.08241092 11.92380824 C-9.60594119 11.06698451 -9.12947146 10.21016078 -8.63856326 9.32737269 C-8.13792361 8.47618861 -7.63728396 7.62500453 -7.12147342 6.74802699 C-6.57228117 5.72019755 -6.02308893 4.69236811 -5.4572545 3.63339232 C-3.12147342 0.74802699 -3.12147342 0.74802699 0 0 Z M104.08980794 196.33444492 C102.62954547 199.03926719 101.72031883 201.79953951 100.87852658 204.74802699 C99.75609113 206.85926851 99.75609113 206.85926851 98.70787229 208.52097621 C98.16219602 209.52144984 97.61651975 210.52192347 97.05430783 211.55271449 C96.11047238 213.27506312 96.11047238 213.27506312 95.14756955 215.03220668 C94.82866757 215.6175619 94.5097656 216.20291713 94.18119992 216.80601039 C92.45106832 219.98088667 90.70917772 223.14930809 88.96837033 226.31833949 C88.44602811 227.27003016 88.44602811 227.27003016 87.91313352 228.24094691 C84.73826283 234.01886466 81.50692027 239.76396464 78.25352658 245.49802699 C73.77030875 253.40095337 69.31252008 261.31736645 64.87852658 269.24802699 C60.39828909 277.25930959 55.90046531 285.26020821 51.37852658 293.24802699 C44.50480262 305.39212792 37.68950722 317.56865622 30.87852658 329.74802699 C23.53721942 342.87572573 16.18264553 355.99528959 8.77281369 369.08445277 C4.78794413 376.12778663 0.82853791 383.18509283 -3.12147342 390.24802699 C-8.13206844 399.20736909 -13.16976393 408.15084673 -18.22694217 417.08396449 C-22.21184111 424.12749046 -26.17137335 431.18493416 -30.12147342 438.24802699 C-34.60182266 446.2592475 -39.09953434 454.26020759 -43.62147342 462.24802699 C-50.49519738 474.39212792 -57.31049278 486.56865622 -64.12147342 498.74802699 C-71.46278058 511.87572573 -78.81735447 524.99528959 -86.22718631 538.08445277 C-90.21205587 545.12778663 -94.17146209 552.18509283 -98.12147342 559.24802699 C-103.13206844 568.20736909 -108.16976393 577.15084673 -113.22694217 586.08396449 C-117.21184111 593.12749046 -121.17137335 600.18493416 -125.12147342 607.24802699 C-130.13206844 616.20736909 -135.16976393 625.15084673 -140.22694217 634.08396449 C-144.21184111 641.12749046 -148.17137335 648.18493416 -152.12147342 655.24802699 C-156.60182266 663.2592475 -161.09953434 671.26020759 -165.62147342 679.24802699 C-172.49519738 691.39212792 -179.31049278 703.56865622 -186.12147342 715.74802699 C-193.46278058 728.87572573 -200.81735447 741.99528959 -208.22718631 755.08445277 C-212.21205587 762.12778663 -216.17146209 769.18509283 -220.12147342 776.24802699 C-225.13206844 785.20736909 -230.16976393 794.15084673 -235.22694217 803.08396449 C-239.21184126 810.12749073 -243.17132406 817.18496153 -247.12147342 824.24802699 C-251.09110061 831.34498998 -255.06384633 838.44001268 -259.07191287 845.51536097 C-260.13995069 847.40864929 -261.19980869 849.30657714 -262.25111209 851.20920863 C-265.02168768 856.19538493 -267.92003965 861.00290914 -271.10584842 865.73630824 C-277.49227325 874.65176224 -277.49227325 874.65176224 -280.08827029 884.96824183 C-278.95432565 889.47491725 -276.38354997 892.99337164 -273.62293826 896.66355433 C-271.46782629 899.65548051 -269.73465079 902.84073278 -267.94984256 906.0629684 C-266.45986923 908.75157808 -264.92876784 911.41297915 -263.38709842 914.07224574 C-259.95480933 920.01857245 -256.59533779 926.00441367 -253.24647342 931.99802699 C-252.66244754 933.04257045 -252.07842166 934.0871139 -251.47669803 935.16331019 C-250.28686211 937.29196661 -249.09732884 939.42079223 -247.90809451 941.5497848 C-244.96088806 946.82559848 -242.01057613 952.09967177 -239.05897342 957.37302699 C-238.47905642 958.40911097 -237.89913943 959.44519496 -237.3016492 960.51267543 C-232.893902 968.3818042 -228.45914102 976.23540388 -224.01576053 984.08445277 C-219.43583833 992.17955363 -214.8917968 1000.29446863 -210.35194217 1008.41208949 C-206.45989286 1015.36772527 -202.548076 1022.31184502 -198.62147342 1029.24802699 C-191.15214703 1042.44440408 -183.75210897 1055.67934499 -176.3509656 1068.91404261 C-169.59915549 1080.98602558 -162.82991041 1093.04753725 -156.01576053 1105.08445277 C-151.43583833 1113.17955363 -146.8917968 1121.29446863 -142.35194217 1129.41208949 C-138.45989305 1136.36772494 -134.54813569 1143.31187903 -130.62147342 1150.24802699 C-125.50412538 1159.28743008 -120.42214161 1168.34616995 -115.35194217 1177.41208949 C-111.45989286 1184.36772527 -107.548076 1191.31184502 -103.62147342 1198.24802699 C-96.15214703 1211.44440408 -88.75210897 1224.67934499 -81.3509656 1237.91404261 C-74.59915549 1249.98602558 -67.82991041 1262.04753725 -61.01576053 1274.08445277 C-56.43583833 1282.17955363 -51.8917968 1290.29446863 -47.35194217 1298.41208949 C-43.45989305 1305.36772494 -39.54813569 1312.31187903 -35.62147342 1319.24802699 C-30.50412538 1328.28743008 -25.42214161 1337.34616995 -20.35194217 1346.41208949 C-16.45989305 1353.36772494 -12.54813569 1360.31187903 -8.62147342 1367.24802699 C-3.50412538 1376.28743008 1.57785839 1385.34616995 6.64805783 1394.41208949 C10.54010714 1401.36772527 14.451924 1408.31184502 18.37852658 1415.24802699 C25.84785297 1428.44440408 33.24789103 1441.67934499 40.6490344 1454.91404261 C47.40084451 1466.98602558 54.17008959 1479.04753725 60.98423947 1491.08445277 C65.56416167 1499.17955363 70.1082032 1507.29446863 74.64805783 1515.41208949 C79.06207724 1523.30055876 83.50238417 1531.17381371 87.95982541 1539.03782191 C90.90495641 1544.23858684 93.83045767 1549.44971356 96.73399533 1554.67380824 C97.37337033 1555.82236293 98.01274533 1556.97091761 98.67149533 1558.15427699 C99.91263208 1560.38576409 101.15101797 1562.61878394 102.38633908 1564.85349574 C102.94450315 1565.85638636 103.50266721 1566.85927699 104.07774533 1567.89255824 C104.81770749 1569.22830897 104.81770749 1569.22830897 105.57261838 1570.59104457 C106.82550942 1572.85412147 106.82550942 1572.85412147 108.87852658 1574.74802699 C111.25736476 1575.05856432 111.25736476 1575.05856432 114.07191552 1575.01598533 C115.18187935 1575.02483575 116.29184318 1575.03368616 117.43544228 1575.04280477 C118.66748881 1575.04241015 119.89953533 1575.04201553 121.1689166 1575.04160895 C123.12555347 1575.0527102 123.12555347 1575.0527102 125.12171836 1575.06403571 C128.77083434 1575.08440863 132.41988814 1575.09218271 136.06905247 1575.09798252 C140.02840603 1575.10639619 143.98770525 1575.12617497 147.94702329 1575.14445683 C155.81273436 1575.1788816 163.67844408 1575.20225619 171.54420371 1575.22220395 C178.08619497 1575.23909968 184.62815717 1575.26065647 191.17012395 1575.28522982 C192.11274438 1575.28876705 193.05536481 1575.29230428 194.02654949 1575.2959487 C195.94885956 1575.30317452 197.87116961 1575.31040485 199.79347964 1575.31763961 C225.80093752 1575.41452864 251.80846178 1575.48068566 277.81602658 1575.54099574 C278.88059425 1575.54347474 279.94516192 1575.54595374 281.04198922 1575.54850787 C323.16826921 1575.64637928 365.29458037 1575.73041998 407.42093506 1575.78832678 C417.86106384 1575.80270366 428.30119183 1575.81762431 438.74131955 1575.83274379 C440.47177961 1575.83522948 440.47177961 1575.83522948 442.23719846 1575.8377654 C479.64608635 1575.89192188 517.05447641 1576.00640233 554.46310285 1576.1541459 C592.90491287 1576.30569393 631.34645459 1576.40208242 669.7885663 1576.42676584 C675.21602461 1576.43026391 680.64348231 1576.43436474 686.07093991 1576.43881717 C687.139148 1576.43967036 688.20735609 1576.44052355 689.30793413 1576.44140259 C706.51366735 1576.45671244 723.71869397 1576.52981287 740.92415533 1576.62409398 C758.21354532 1576.71752076 775.50216764 1576.74881729 792.79178782 1576.7165768 C803.0687126 1576.69927494 813.34295512 1576.72945348 823.61944223 1576.82731163 C830.48232761 1576.88799622 837.34341121 1576.88704366 844.20636925 1576.83581615 C848.11943763 1576.8083711 852.02740505 1576.80783826 855.93997265 1576.88239865 C870.75773472 1577.8423021 870.75773472 1577.8423021 884.06248082 1573.09057466 C887.52660205 1569.13322993 889.47691582 1564.80596494 891.12624635 1559.85390168 C892.2701532 1556.65173794 893.94204601 1553.9091297 895.67930783 1550.99021449 C896.85183754 1548.86889907 898.0223925 1546.746491 899.19102658 1544.62302699 C900.48721279 1542.27889188 901.78391977 1539.9350557 903.08165158 1537.59177699 C903.71909299 1536.44064418 904.3565344 1535.28951136 905.01329221 1534.10349574 C907.79710071 1529.09555543 910.6157619 1524.10766613 913.44102658 1519.12302699 C917.9436607 1511.17768917 922.42136086 1503.21896494 926.87852658 1495.24802699 C931.35881995 1487.23677543 935.85658768 1479.23584608 940.37852658 1471.24802699 C947.25225055 1459.10392606 954.06754595 1446.92739776 960.87852658 1434.74802699 C968.21983374 1421.62032825 975.57440764 1408.50076439 982.98423947 1395.41160121 C986.96910904 1388.36826735 990.92851526 1381.31096115 994.87852658 1374.24802699 C999.88912161 1365.28868489 1004.9268171 1356.34520725 1009.98399533 1347.41208949 C1013.96889427 1340.36856352 1017.92842652 1333.31111982 1021.87852658 1326.24802699 C1026.88912161 1317.28868489 1031.9268171 1308.34520725 1036.98399533 1299.41208949 C1040.96889427 1292.36856352 1044.92842652 1285.31111982 1048.87852658 1278.24802699 C1053.35887583 1270.23680648 1057.85658751 1262.23584639 1062.37852658 1254.24802699 C1069.25225055 1242.10392606 1076.06754595 1229.92739776 1082.87852658 1217.74802699 C1090.21983374 1204.62032825 1097.57440764 1191.50076439 1104.98423947 1178.41160121 C1108.96910904 1171.36826735 1112.92851526 1164.31096115 1116.87852658 1157.24802699 C1121.88912161 1148.28868489 1126.9268171 1139.34520725 1131.98399533 1130.41208949 C1135.96889427 1123.36856352 1139.92842652 1116.31111982 1143.87852658 1109.24802699 C1148.88912161 1100.28868489 1153.9268171 1091.34520725 1158.98399533 1082.41208949 C1162.96889427 1075.36856352 1166.92842652 1068.31111982 1170.87852658 1061.24802699 C1175.35887583 1053.23680648 1179.85658751 1045.23584639 1184.37852658 1037.24802699 C1191.25225055 1025.10392606 1198.06754595 1012.92739776 1204.87852658 1000.74802699 C1212.21983374 987.62032825 1219.57440764 974.50076439 1226.98423947 961.41160121 C1230.96910935 954.36826681 1234.92841666 947.31090639 1238.87852658 940.24802699 C1242.86707773 933.11828495 1246.85711982 925.98947722 1250.87974729 918.87888636 C1251.95389617 916.97316439 1253.02028244 915.06304414 1254.07847776 913.14841761 C1256.75178062 908.34154545 1259.5342667 903.71118901 1262.64024533 899.16990199 C1269.0179268 890.30649982 1269.0179268 890.30649982 1270.33555783 879.98240199 C1268.60094169 876.68330263 1266.71517082 873.90251585 1264.45860471 870.9560348 C1261.29091165 866.52948721 1258.85330646 861.64640528 1256.25352658 856.87302699 C1255.0368022 854.699286 1253.81669909 852.52743306 1252.59337033 850.35740199 C1249.57642432 844.99218597 1246.56871861 839.62187696 1243.56456174 834.24949183 C1237.99368647 824.28849927 1232.39532165 814.34353026 1226.77281369 804.41160121 C1222.1928915 796.31650035 1217.64884996 788.20158535 1213.10899533 780.08396449 C1209.21694622 773.12832904 1205.30518886 766.18417495 1201.37852658 759.24802699 C1196.26117855 750.2086239 1191.17919478 741.14988403 1186.10899533 732.08396449 C1182.21694622 725.12832904 1178.30518886 718.18417495 1174.37852658 711.24802699 C1169.26117855 702.2086239 1164.17919478 693.14988403 1159.10899533 684.08396449 C1155.21694603 677.1283287 1151.30512917 670.18420896 1147.37852658 663.24802699 C1139.9092002 650.0516499 1132.50916214 636.81670899 1125.10801877 623.58201136 C1118.35620866 611.5100284 1111.58696358 599.44851673 1104.77281369 587.41160121 C1100.1928915 579.31650035 1095.64884996 571.20158535 1091.10899533 563.08396449 C1087.21694622 556.12832904 1083.30518886 549.18417495 1079.37852658 542.24802699 C1074.26117855 533.2086239 1069.17919478 524.14988403 1064.10899533 515.08396449 C1060.21694603 508.1283287 1056.30512917 501.18420896 1052.37852658 494.24802699 C1044.9092002 481.0516499 1037.50916214 467.81670899 1030.10801877 454.58201136 C1023.35620866 442.5100284 1016.58696358 430.44851673 1009.77281369 418.41160121 C1005.1928915 410.31650035 1000.64884996 402.20158535 996.10899533 394.08396449 C992.21694622 387.12832904 988.30518886 380.18417495 984.37852658 373.24802699 C979.26117855 364.2086239 974.17919478 355.14988403 969.10899533 346.08396449 C965.21694622 339.12832904 961.30518886 332.18417495 957.37852658 325.24802699 C952.26117855 316.2086239 947.17919478 307.14988403 942.10899533 298.08396449 C938.21694603 291.1283287 934.30512917 284.18420896 930.37852658 277.24802699 C925.88007719 269.30042482 921.40159375 261.34195413 916.94102658 253.37302699 C916.3596594 252.33476771 915.77829221 251.29650843 915.17930783 250.22678676 C912.23858778 244.97277074 909.30298107 239.71597314 906.37462033 234.45505824 C905.49568112 232.87893763 905.49568112 232.87893763 904.59898557 231.27097621 C903.52232126 229.34010015 902.44733939 227.4082839 901.37486447 225.47507777 C900.30989657 223.56664194 899.21032772 221.67721248 898.08173086 219.80570158 C896.24361246 216.61478789 894.88936638 213.34170038 893.52049805 209.92545839 C888.46572146 198.17665922 888.46572146 198.17665922 878.86046319 190.34924913 C870.44936037 188.25291726 861.81277262 188.52033592 853.20840366 188.73302066 C849.24434364 188.80423124 845.28220605 188.73520239 841.31817128 188.68450495 C834.37920396 188.61491609 827.44493492 188.63403358 820.50612248 188.71213832 C810.18916694 188.8279473 799.87567784 188.80581595 789.55835482 188.75646845 C771.13301022 188.67274316 752.70992887 188.7244185 734.28481954 188.83181925 C718.16474062 188.92510098 702.04541219 188.96909837 685.92506208 188.96477237 C684.85553937 188.9645355 683.78601666 188.96429863 682.68408417 188.96405458 C678.3425421 188.9629819 674.00100025 188.96162336 669.6594584 188.95987111 C628.94378329 188.94379088 588.22944388 189.05868258 547.51421229 189.23879122 C511.33399081 189.39821102 475.15479533 189.46590106 438.97422971 189.44895472 C436.65024362 189.44789816 434.32625753 189.44684272 432.00227144 189.44578843 C430.85333984 189.44526328 429.70440823 189.44473814 428.52066052 189.44419708 C422.73719416 189.44158286 416.95372777 189.43912005 411.17026128 189.43682685 C409.45880503 189.43612998 409.45880503 189.43612998 407.7127739 189.43541902 C377.48321846 189.42415677 347.25378434 189.4759334 317.02432419 189.54878851 C315.4117095 189.55266179 315.4117095 189.55266179 313.76651673 189.55661332 C307.28176848 189.57220677 307.28176848 189.57220677 300.79702095 189.58809681 C285.75047835 189.62499101 270.70405994 189.63971871 255.6574749 189.63988923 C236.27260394 189.64037763 216.88863151 189.68437277 197.50410423 189.80419235 C187.24955445 189.86638641 176.99637557 189.89319005 166.74165738 189.86894199 C159.89625444 189.85639651 153.05214861 189.89101425 146.20713029 189.96443342 C142.30356049 190.00501523 138.40284175 190.02505113 134.49916878 189.98825489 C117.60480139 188.68489203 117.60480139 188.68489203 104.08980794 196.33444492 Z " fill="#FFFFFF" transform="translate(505.12147341668606,116.25197301059961)"/>
<path d="M0 0 C2.27483299 0.06463306 4.54987602 0.12219104 6.82505226 0.17333412 C11.79591419 0.29937123 16.76208568 0.47309221 21.73011971 0.68269539 C29.87483383 1.02490614 38.02046918 1.25963882 46.16929626 1.4783783 C49.05231454 1.55707013 51.93530637 1.63668763 54.81828594 1.71678448 C55.54590719 1.7369636 56.27352844 1.75714272 57.02319882 1.77793333 C62.33674569 1.92693725 67.64968396 2.09164122 72.9625597 2.26279163 C96.64405871 3.02232778 120.32393265 3.52476069 144.0144043 3.9050293 C144.90835245 3.91946554 145.80230061 3.93390179 146.7233381 3.9487755 C154.97007344 4.08192145 163.21683632 4.21327461 171.463642 4.34199226 C184.53609397 4.54631765 197.60823658 4.76529385 210.68026733 4.9949646 C211.61178252 5.01133082 212.54329771 5.02769703 213.50304063 5.0445592 C218.22329185 5.12758989 222.94353784 5.21091355 227.66378093 5.2944057 C236.20172413 5.44538881 244.73969388 5.59485745 253.27766319 5.74435551 C256.13929625 5.79447018 259.00092846 5.84463368 261.86256063 5.89479959 C276.50874725 6.15140933 291.15499191 6.40458767 305.80125207 6.65696044 C322.08763267 6.93765196 338.37395834 7.22137033 354.66023439 7.50806421 C363.70136892 7.66714359 372.74252165 7.82493284 381.78373909 7.9792347 C389.38659454 8.10899327 396.98939625 8.24147585 404.59214134 8.37755353 C408.45246737 8.4465644 412.31280429 8.51429085 416.17321396 8.57846832 C420.35795758 8.64807291 424.54256431 8.72396084 428.72718811 8.8004303 C429.93348643 8.81949891 431.13978475 8.83856752 432.38263756 8.85821396 C452.0330341 9.23491273 452.0330341 9.23491273 455.69042969 12.25439453 C456.23932861 13.16503662 456.78822754 14.07567871 457.35375977 15.01391602 C457.98846191 16.01438965 458.62316406 17.01486328 459.27709961 18.0456543 C459.88634277 19.0651416 460.49558594 20.08462891 461.12329102 21.13500977 C462.31966623 22.92037962 463.52396956 24.70046521 464.73657227 26.47485352 C465.97158551 28.33945521 467.20457125 30.20540101 468.43579102 32.07250977 C469.85408897 34.2111761 471.27339968 36.34917107 472.69360352 38.48657227 C473.05840317 39.03563736 473.42320282 39.58470245 473.79905701 40.15040588 C477.76330642 46.10971834 481.78524354 52.02952796 485.81079102 57.94750977 C493.95810316 69.93246083 502.07969288 81.93464361 510.18579102 93.94750977 C510.80031128 94.85805115 511.41483154 95.76859253 512.04797363 96.70672607 C521.65621668 110.94761582 531.1928418 125.23496549 540.70217896 139.54202271 C548.32077681 150.99882423 556.01797777 162.38574533 564.02368164 173.57739258 C567.13638237 177.98659121 567.13638237 177.98659121 566.90966797 180.55688477 C566.09684805 183.22170263 565.10074722 185.08530477 563.54125977 187.38500977 C563.02112305 188.15844727 562.50098633 188.93188477 561.96508789 189.72875977 C561.14621094 190.91985352 561.14621094 190.91985352 560.31079102 192.13500977 C559.77647461 192.92907227 559.2421582 193.72313477 558.69165039 194.54125977 C557.19041643 196.75710325 555.68623714 198.96219994 554.12329102 201.13500977 C553.67124078 201.99316316 553.21919054 202.85131655 552.75344181 203.73547459 C548.52114152 207.59668036 544.02794379 206.77462655 538.50108337 206.66819763 C537.30276056 206.66469067 536.10443774 206.66118371 534.86980212 206.65757048 C531.54702984 206.64214588 528.22598359 206.60381187 524.90362664 206.55518873 C521.32053942 206.50787486 517.73727502 206.48886395 514.15396786 206.46531582 C505.6005898 206.40222289 497.04816361 206.28919112 488.49543875 206.16808289 C485.38538318 206.12472165 482.27529045 206.08451532 479.16519247 206.04433127 C457.9026555 205.76863905 436.64206484 205.40037223 415.38144815 205.00551615 C406.26426358 204.83636981 397.14696295 204.67388253 388.02965581 204.51150125 C371.73241413 204.22105713 355.43527109 203.92542628 339.13818359 203.62646484 C323.46213659 203.33890432 307.78603644 203.05452757 292.10986328 202.77392578 C290.65545027 202.74789093 290.65545027 202.74789093 289.17165519 202.72133011 C285.26948062 202.65148575 281.36730596 202.58164739 277.46513108 202.5118208 C261.39649953 202.22419531 245.32791312 201.93406235 229.25933337 201.64355922 C225.6478424 201.57827296 222.03634972 201.51308253 218.42485547 201.44797826 C140.91504934 200.0504337 140.91504934 200.0504337 107.12329102 199.13500977 C106.8256636 199.91191162 106.52803619 200.68881348 106.22138977 201.48925781 C105.02606219 204.36927227 103.55288779 206.46812279 101.66625977 208.94750977 C98.3528535 213.41201405 95.18747936 217.94137197 92.11157227 222.57250977 C91.44168022 223.58083359 91.44168022 223.58083359 90.758255 224.60952759 C89.8122318 226.03578036 88.86694612 227.46252256 87.92233276 228.88970947 C85.29484875 232.85831017 82.65820308 236.82081579 80.02172852 240.78344727 C79.46527145 241.61999847 78.90881439 242.45654968 78.335495 243.31845093 C71.78412151 253.15936956 65.17493648 262.96121481 58.56079102 272.76000977 C57.95567688 273.65660309 57.35056274 274.55319641 56.72711182 275.47695923 C44.87293634 293.03894256 33.00166169 310.58938441 21.12329102 328.13500977 C44.50340638 328.91621806 67.88169174 329.43432269 91.27123094 329.82821727 C96.08484009 329.90977992 100.89840466 329.99390225 105.7119751 330.07771301 C114.01254522 330.22193682 122.3131391 330.36471642 130.61375046 330.50654602 C142.62635132 330.71187471 154.63889559 330.92038024 166.65142639 331.12976354 C186.16692731 331.46991748 205.68245029 331.80878396 225.19799805 332.14624023 C226.36073453 332.16634673 227.52347102 332.18645322 228.72144194 332.207169 C241.72126713 332.43192333 254.72110082 332.65617802 267.72094727 332.87969971 C268.89362509 332.89986311 270.06630292 332.92002652 271.27451644 332.94080094 C273.6407081 332.98148433 276.00689975 333.02216753 278.37309141 333.06285053 C279.5424981 333.08295703 280.71190479 333.10306352 281.91674805 333.1237793 C283.66868945 333.15390056 283.66868945 333.15390056 285.45602362 333.18463033 C304.93519637 333.51961933 324.41431362 333.85772247 343.89338839 334.19836092 C355.87910094 334.40783367 367.86485309 334.61468151 379.8506697 334.81811488 C388.04781059 334.95744629 396.24489773 335.09968583 404.4419487 335.24421012 C409.16643025 335.32741297 413.890925 335.40929791 418.61548996 335.48763466 C422.94357083 335.55942185 427.27156973 335.63496158 431.59953459 335.71342355 C433.16062036 335.74106958 434.72173088 335.76736106 436.28286509 335.79212159 C444.60065382 335.92482952 452.84966111 336.21085778 461.12329102 337.13500977 C459.59340203 341.12073676 457.77346555 344.36305261 455.35375977 347.89282227 C454.96999176 348.45589081 454.58622375 349.01895935 454.19082642 349.59909058 C453.34874551 350.83351102 452.50449369 352.06645265 451.65835571 353.2980957 C449.78433362 356.02647698 447.92149519 358.76243527 446.05760193 361.4977417 C445.0397311 362.99115981 444.02129273 364.48419122 443.00233459 365.97686768 C436.6121346 375.33947749 430.27375876 384.73699921 423.93579102 394.13500977 C423.32674927 395.03751465 422.71770752 395.94001953 422.09020996 396.86987305 C415.3359321 406.87957309 408.60074395 416.90145357 401.91235352 426.95532227 C401.33118271 427.82872253 400.7500119 428.7021228 400.15122986 429.60198975 C397.41310699 433.71846133 394.67827382 437.83706323 391.94873047 441.95922852 C386.62517779 449.98402686 381.19405575 457.91254901 375.61236572 465.75999451 C370.0057545 473.66592771 364.65858094 481.74028552 359.31079102 489.82250977 C358.33644606 491.29338808 357.36183653 492.76409117 356.38696289 494.23461914 C355.69886306 495.27806774 355.69886306 495.27806774 354.99686223 496.34259611 C353.99592926 497.84129073 352.97998653 499.33015877 351.94390458 500.80477279 C349.02227117 505.01076279 346.61735057 509.1084452 344.5580492 513.80222416 C341.43678327 520.29923932 338.07296739 525.88876438 332.12329102 530.13500977 C321.01153737 533.8570677 308.63299631 532.6017923 297.09624779 532.11131155 C292.27297034 531.9309404 287.44804455 531.88041912 282.62210083 531.81356812 C274.26435576 531.68022802 265.91190472 531.4657296 257.5575161 531.19526482 C245.43368544 530.80291877 233.3095382 530.53508804 221.18182651 530.29632349 C201.44302661 529.90436444 181.70800836 529.41302997 161.97314453 528.85888672 C142.91425158 528.32393897 123.85512599 527.83497176 104.79345703 527.40966797 C103.62335959 527.38354449 102.45326215 527.357421 101.24770721 527.3305059 C95.37119817 527.19959555 89.49466924 527.06960286 83.61813009 526.94005191 C42.95279447 526.042494 2.29067428 525.04706292 -38.3697052 523.94804382 C-41.81428405 523.85500113 -45.25886445 523.76201569 -48.70344543 523.66905212 C-49.52719554 523.6467818 -50.35094564 523.62451148 -51.19965787 523.6015663 C-71.09084806 523.06489013 -90.98365775 522.59672223 -110.87670898 522.13500977 C-111.16797165 522.89800385 -111.45923431 523.66099792 -111.75932312 524.44711304 C-113.14105814 527.77090759 -115.05156501 530.60060466 -117.08374023 533.54907227 C-117.51199097 534.1788649 -117.9402417 534.80865753 -118.38146973 535.45753479 C-119.31778786 536.83333199 -120.25628557 538.20764776 -121.19668579 539.58065796 C-122.72418768 541.81108493 -124.24589056 544.04536789 -125.76611328 546.28076172 C-127.97331407 549.52603534 -130.1823405 552.77005538 -132.39233398 556.01342773 C-137.73900653 563.86621195 -143.05275025 571.74123773 -148.36480713 579.61746216 C-149.58224983 581.42256911 -150.79998317 583.22748007 -152.01800537 585.03219604 C-158.80480748 595.08877269 -165.57047321 605.15884778 -172.29077148 615.26000977 C-173.18456764 616.60317009 -173.18456764 616.60317009 -174.09642029 617.97346497 C-176.92789224 622.2300554 -179.75598768 626.48883833 -182.57910156 630.75097656 C-183.59363084 632.2787523 -184.60819592 633.80650426 -185.62280273 635.33422852 C-186.29123703 636.34700867 -186.29123703 636.34700867 -186.97317505 637.38024902 C-189.23753205 640.78560988 -191.57710253 644.1072813 -194.03968811 647.37287903 C-194.573033 648.08103665 -195.10637789 648.78919428 -195.65588474 649.51881123 C-196.05875674 650.05215674 -196.46162874 650.58550226 -196.87670898 651.13500977 C-174.17046272 651.80597493 -151.46592262 652.3547479 -128.75315511 652.74367428 C-124.71813864 652.81319839 -120.68316117 652.88492801 -116.6481781 652.95635986 C-109.69497571 653.07917969 -102.74175199 653.20072014 -95.78851128 653.3213501 C-85.6892677 653.49658369 -75.59006602 653.67414715 -65.49087287 653.85226035 C-49.03186161 654.14249951 -32.57282551 654.43130279 -16.11376953 654.71899414 C-14.64498395 654.74466796 -14.64498395 654.74466796 -13.14652593 654.77086043 C-9.18098801 654.84017457 -5.21545005 654.90948618 -1.24991202 654.97879422 C9.64931411 655.169301 20.54853515 655.36009735 31.44775391 655.55102539 C32.42358803 655.56811924 33.39942215 655.58521308 34.40482701 655.60282493 C50.80605932 655.89016349 67.20727414 656.17849089 83.60847896 656.46739388 C92.7659803 656.6286515 101.92349123 656.78932535 111.08102608 656.94866943 C111.96120538 656.96400848 112.84138468 656.97934753 113.74823609 656.9951514 C118.10021257 657.07099302 122.45219308 657.14658476 126.80418235 657.22168922 C134.97949863 657.36335727 143.15460904 657.51133348 151.32952213 657.67471313 C154.36657471 657.73481657 157.40363644 657.79443657 160.44070435 657.85375977 C161.16889489 657.86809453 161.89708543 657.88242929 162.64734235 657.89719844 C171.05093895 658.06014748 179.45069383 658.16194011 187.85626441 658.1420536 C191.95120621 658.13324507 196.04578171 658.15207297 200.14066112 658.17362595 C202.75496865 658.17405237 205.36553524 658.12872843 207.97931004 658.08047485 C214.95570685 658.06070767 220.11523974 658.19287052 225.46559143 663.26635742 C228.86176908 667.25585412 231.66029129 671.82374987 232.12329102 677.13500977 C230.99543283 680.97488179 229.07360696 683.78379906 226.66625977 686.94750977 C223.35285348 691.41201409 220.18747888 695.94137148 217.11157227 700.57250977 C216.44208809 701.58022179 216.44208809 701.58022179 215.75907898 702.60829163 C214.81333099 704.03413278 213.86832018 705.46046313 212.92398071 706.88723755 C210.28816099 710.86839825 207.64312564 714.84342826 204.99829102 718.81860352 C204.44059525 719.65701279 203.88289948 720.49542206 203.30830383 721.35923767 C196.89085701 730.99898953 190.41573314 740.59970234 183.93579102 750.19750977 C183.33203644 751.09189758 182.72828186 751.9862854 182.10623169 752.90777588 C179.64014003 756.56079966 177.17378526 760.21364548 174.70692444 763.8661499 C169.75693238 771.19526739 164.81092334 778.52706253 159.86799622 785.86094666 C156.83868052 790.35530893 153.8073582 794.84828521 150.77099609 799.33789062 C145.38057301 807.31181772 140.00530109 815.29397679 134.70281982 823.32675171 C132.39815443 826.81594425 130.08293382 830.29806593 127.76672363 833.77960205 C126.68028594 835.41934585 125.59920724 837.06265429 124.52380371 838.70965576 C123.04933712 840.96728376 121.55729807 843.21226717 120.06079102 845.45532227 C119.63191589 846.12283508 119.20304077 846.7903479 118.76116943 847.47808838 C115.74683945 851.94098834 115.74683945 851.94098834 112.94859773 852.81168067 C109.45609822 853.21136354 106.02312886 853.21138797 102.51603985 853.13591194 C101.75431604 853.12385839 100.99259223 853.11180484 100.20778587 853.09938604 C97.64635758 853.05751845 95.08513908 853.0078722 92.52384949 852.95828247 C90.67223698 852.92639691 88.82061623 852.8949876 86.96898824 852.86401451 C81.87301331 852.77737761 76.77718228 852.68393134 71.68134868 852.58939052 C66.18747047 852.48864228 60.69348419 852.39415442 55.19950867 852.29888916 C44.4283337 852.11111594 33.65727093 851.91751375 22.88623484 851.72195329 C10.33068862 851.49420089 -2.22495582 851.27211032 -14.78060707 851.05023693 C-37.88197963 850.6417998 -60.98324556 850.22759388 -84.08446685 849.81071251 C-105.1314366 849.43092978 -126.17847495 849.05522258 -147.22558594 848.68334961 C-148.57431191 848.65951805 -149.92303787 848.63568645 -151.27176384 848.61185481 C-151.93857096 848.60007269 -152.60537808 848.58829057 -153.29239148 848.57615142 C-156.64965145 848.51682927 -160.0069113 848.45750065 -163.36417103 848.39816475 C-164.02662894 848.3864571 -164.68908685 848.37474946 -165.37161924 848.36268704 C-186.77425642 847.98438143 -208.17681627 847.60174161 -229.57937101 847.21880535 C-238.31405076 847.06261357 -247.04875022 846.90755593 -255.7834568 846.75287247 C-266.45534318 846.56381209 -277.1271879 846.37256179 -287.79898755 846.17866601 C-293.235762 846.0799259 -298.67254789 845.98204489 -304.10938263 845.88667679 C-314.39156321 845.70576534 -324.67323165 845.51469345 -334.95438019 845.28168692 C-338.62980161 845.19948002 -342.30464137 845.12505332 -345.98076606 845.08339071 C-349.41430767 845.04361735 -352.84616476 844.97704163 -356.27909851 844.90280151 C-357.20799607 844.9015833 -358.13689363 844.90036509 -359.0939396 844.89910996 C-363.26202327 844.77884472 -365.9768855 844.50717748 -369.19837666 841.72635078 C-371.40345354 839.18532345 -373.0457562 836.69706814 -374.57296753 833.70230103 C-375.61310594 831.66419848 -376.74788432 829.71011365 -377.91992188 827.74511719 C-379.20855878 825.57867147 -380.48759296 823.40961736 -381.73667908 821.22007751 C-386.68188312 812.55433194 -392.32735331 804.38252671 -397.96279907 796.15618896 C-401.10020808 791.56604691 -404.20297889 786.95257645 -407.31030273 782.34204102 C-408.57559866 780.46774253 -409.8410609 778.59355631 -411.10668945 776.71948242 C-416.60108631 768.58159678 -422.09048045 760.44033764 -427.58013916 752.29925537 C-430.56292671 747.87589341 -433.54598657 743.45271509 -436.52905273 739.02954102 C-437.41856628 737.71058838 -437.41856628 737.71058838 -438.3260498 736.36499023 C-442.20216604 730.61765446 -446.07865609 724.87057097 -449.95535278 719.12362671 C-452.63738999 715.14765815 -455.31930996 711.17161051 -458.0012207 707.19555664 C-459.28127265 705.29789333 -460.56138223 703.40026888 -461.84155273 701.50268555 C-463.61513559 698.87371455 -465.3885209 696.2446104 -467.16186523 693.61547852 C-467.6834169 692.84249924 -468.20496857 692.06951996 -468.74232483 691.27311707 C-469.69467305 689.8610247 -470.64371435 688.44669357 -471.58865356 687.02963257 C-472.41879096 685.80856924 -473.27246982 684.60302556 -474.15377808 683.41836548 C-476.94208356 679.6032403 -476.94208356 679.6032403 -476.60298157 677.17449951 C-475.36362999 673.69420178 -473.17028283 670.76423779 -471.11108398 667.72485352 C-470.61483017 666.98262039 -470.11857635 666.24038727 -469.60728455 665.47566223 C-467.95267873 663.00414818 -466.28976587 660.53834352 -464.62670898 658.07250977 C-463.45153565 656.32118405 -462.27682102 654.56955047 -461.10253906 652.81762695 C-457.99310814 648.1824046 -454.87609543 643.55233575 -451.75640869 638.92401123 C-449.92683573 636.20938524 -448.09856753 633.49388568 -446.27075195 630.77807617 C-437.2059643 617.31096682 -428.12064909 603.85774862 -419.03308105 590.40600586 C-414.75050837 584.06653879 -410.46924781 577.72618781 -406.18920898 571.38500977 C-405.59150696 570.49969574 -404.99380493 569.61438171 -404.37799072 568.70223999 C-394.95289139 554.73874593 -385.602541 540.7267662 -376.27694702 526.69668579 C-369.9312166 517.15432582 -363.53131757 507.66617757 -356.90258789 498.31713867 C-352.07768782 491.48784647 -347.43926923 484.53782885 -342.81420898 477.57250977 C-334.57332844 465.16296429 -326.27340778 452.79458866 -317.93920898 440.44750977 C-317.3274884 439.54100677 -316.71576782 438.63450378 -316.08551025 437.70053101 C-310.44709162 429.34504765 -304.80620239 420.99123373 -299.16381836 412.63842773 C-295.50459727 407.22130868 -291.84655248 401.80339662 -288.18920898 396.38500977 C-287.59205078 395.50051147 -286.99489258 394.61601318 -286.37963867 393.70471191 C-276.95331629 379.73938819 -267.60176828 365.72556221 -258.27493286 351.69366455 C-251.97654786 342.22253433 -245.62520696 332.80537956 -239.04321289 323.52807617 C-233.34098324 315.45465643 -227.89331565 307.21411429 -222.42529297 298.98132324 C-214.21458227 286.61976061 -205.93528259 274.3059888 -197.62670898 262.01000977 C-190.27769079 251.13405166 -182.93948821 240.25163003 -175.66967773 229.32250977 C-175.08826019 228.44861603 -174.50684265 227.57472229 -173.9078064 226.67434692 C-171.16863769 222.55554942 -168.43284883 218.43455747 -165.7019043 214.31030273 C-160.33480966 206.2200684 -154.85913285 198.22590552 -149.23422241 190.31268311 C-144.77479115 184.02642326 -140.48021703 177.64046899 -136.2298584 171.21160889 C-133.88526564 167.66633539 -131.53131623 164.12728216 -129.17749023 160.58813477 C-128.67539032 159.83301605 -128.17329041 159.07789734 -127.65597534 158.29989624 C-121.35847836 148.83924469 -114.98975474 139.42663398 -108.62670898 130.01000977 C-101.27767047 119.13406557 -93.93948808 108.25162983 -86.66967773 97.32250977 C-86.08826019 96.44861603 -85.50684265 95.57472229 -84.9078064 94.67434692 C-82.16863769 90.55554942 -79.43284883 86.43455747 -76.7019043 82.31030273 C-71.38557647 74.29655223 -65.96244806 66.37845794 -60.38844299 58.54174805 C-54.67081318 50.47929298 -49.21237976 42.24765073 -43.75170898 34.01000977 C-42.73500622 32.47991277 -41.71807936 30.94996466 -40.70092773 29.42016602 C-38.80745747 26.57195802 -36.91543178 23.72280139 -35.0246582 20.87280273 C-34.32266973 19.87687685 -34.32266973 19.87687685 -33.60649967 18.86083126 C-32.24127082 16.70948996 -31.20444784 14.72879674 -30.15089512 12.43098736 C-23.21976527 -1.50866876 -14.34373367 -0.76857013 0 0 Z " fill="#FFFFFF" transform="translate(1108.876708984375,758.864990234375)"/>
<path d="M0 0 C1.49320177 0.01280945 1.49320177 0.01280945 3.01656924 0.02587768 C6.3401581 0.06383137 9.65960387 0.15912173 12.98201561 0.25407314 C15.36281357 0.29257846 17.74367405 0.32737323 20.12457716 0.35870939 C25.18083823 0.43216262 30.23582871 0.52968907 35.29127741 0.64626336 C42.77508439 0.81725484 50.2587482 0.92641747 57.74386787 1.02032185 C71.56356388 1.20103259 85.38188763 1.44035572 99.20041155 1.69252891 C106.66872155 1.82866471 114.13712997 1.95905151 121.60554217 2.08943805 C136.21926663 2.3447404 150.83289495 2.60522541 165.44648625 2.86802794 C178.21797633 3.09767851 190.98949948 3.3253805 203.7610569 3.55125523 C204.61499718 3.56635992 205.46893746 3.58146461 206.34875472 3.59702701 C209.81663051 3.65836387 213.28450648 3.71969045 216.75238271 3.78100256 C249.11376095 4.35317006 281.47504542 4.93048583 313.83628568 5.51039891 C342.51731448 6.02433612 371.19840936 6.5344123 399.8795681 7.04104519 C401.72602834 7.07366283 403.57248858 7.10628055 405.41894881 7.13889837 C406.33186239 7.15502498 407.24477596 7.17115159 408.18535359 7.18776688 C412.78193891 7.26896748 417.37852409 7.35017648 421.9751091 7.43139458 C423.33572282 7.45543507 423.33572282 7.45543507 424.72382368 7.47996123 C448.79763797 7.90536877 472.87140199 8.33360128 496.94515002 8.76274067 C499.53640265 8.80893043 502.12765528 8.85512007 504.71890792 8.9013091 C506.43736243 8.93194143 508.1558169 8.96257608 509.87427133 8.99321306 C521.80734863 9.20593849 533.74044414 9.41761347 545.67355297 9.62856229 C561.03515642 9.90012433 576.39672284 10.17364942 591.75823091 10.450558 C599.8631498 10.5966035 607.96809292 10.74107391 616.07308194 10.88317526 C622.14512388 10.98982159 628.21710509 11.09960317 634.2890702 11.21054698 C636.72864144 11.25465484 639.16823047 11.29779248 641.60783868 11.33980542 C648.05034778 11.45105232 654.49169431 11.58309619 660.93311092 11.74593596 C663.05161747 11.79410315 665.1703659 11.83235628 667.28920963 11.86221071 C670.47531713 11.90721888 673.65973238 11.98035506 676.84516907 12.05879211 C677.80197497 12.06535975 678.75878087 12.07192739 679.74458089 12.07869404 C684.15111929 12.21462088 686.35303773 12.32011454 689.97525442 15.00171274 C692.10715537 17.80364392 693.51479327 20.6370032 695.02312279 23.81619167 C696.52118393 26.10229715 698.04094175 28.35270931 699.59734154 30.59744167 C700.42552561 31.83861739 701.25038364 33.08201778 702.07219505 34.32742214 C704.90581113 38.61206384 707.74828417 42.89076448 710.59343529 47.16775417 C711.1085215 47.94224911 711.62360771 48.71674404 712.1543026 49.51470852 C718.42435722 58.93405929 724.75457052 68.31278049 731.08562279 77.69119167 C731.69325462 78.59156155 732.30088646 79.49193142 732.92693138 80.41958523 C738.5248612 88.71438446 744.12561116 97.00727801 749.72722435 105.29959011 C753.38939652 110.72108926 757.05054982 116.14327512 760.71062279 121.56619167 C761.30330956 122.44431515 761.89599632 123.32243862 762.5066433 124.2271719 C775.42411473 143.37108692 788.23701325 162.58436628 801.02312279 181.81619167 C800.47091592 182.74676671 799.91870905 183.67734175 799.34976864 184.63611603 C797.57439935 187.69997667 796.13364111 190.82217531 794.70831013 194.06187248 C791.72131937 200.18729841 788.54823326 205.67072507 783.02312279 209.81619167 C773.55122361 213.05310428 762.83815153 211.61408635 753.01452737 210.87919395 C748.96951232 210.6020798 744.91981531 210.4532549 740.86871243 210.29476929 C734.89343875 210.05165296 728.92173658 209.77414484 722.95019613 209.45199205 C712.18442759 208.8743272 701.4314484 208.56241248 690.65175438 208.41186428 C689.45937281 208.39493626 689.45937281 208.39493626 688.24290272 208.37766626 C685.01404359 208.33266543 681.78516956 208.28938603 678.55625073 208.24888523 C670.23753801 208.14415555 661.91987908 207.99180134 653.6019906 207.83595582 C649.29691985 207.75554644 644.9918048 207.67757736 640.6866951 207.59928608 C638.93217745 207.56726594 637.17765981 207.53524497 635.42314219 207.50322318 C627.18619259 207.3531457 618.9492019 207.20534837 610.71221329 207.05743045 C594.42968299 206.7650248 578.14716975 206.4716829 561.86467552 206.17727566 C560.42294715 206.15120838 560.42294715 206.15120838 558.95209295 206.12461448 C548.18448223 205.92989903 537.41687796 205.73483066 526.64928246 205.53927517 C525.67400977 205.52156309 524.69873709 205.50385101 523.69391069 205.4856022 C522.718953 205.46789545 521.7439953 205.4501887 520.73949343 205.43194538 C518.7717807 205.39620876 516.80406796 205.3604725 514.83635521 205.3247366 C513.86402242 205.30707735 512.89168963 205.2894181 511.88989221 205.27122372 C495.59268521 204.97529795 479.29543856 204.68162112 462.99815899 204.38971907 C453.04119616 204.21128981 443.0842698 204.03104204 433.1273858 203.84826554 C426.32006299 203.72345144 419.51270376 203.60076841 412.70531403 203.47965973 C408.80622584 203.41022532 404.90715906 203.33993145 401.00813484 203.26698589 C393.3860876 203.12501826 385.7644065 203.0003038 378.14155351 202.91054624 C373.87361191 202.85558281 369.60909432 202.75243176 365.34276999 202.62358288 C362.39777586 202.54020233 359.45261357 202.48327467 356.50691444 202.43135 C355.11547649 202.40093486 353.72423007 202.35928946 352.33350395 202.30538636 C343.28450611 201.82528311 343.28450611 201.82528311 335.54577637 205.8855257 C333.33961194 208.19911399 331.51140664 210.51605166 330.15324974 213.42776394 C329.77705498 214.19033504 329.40086021 214.95290615 329.01326561 215.73858547 C328.62464348 216.52732052 328.23602135 217.31605556 327.83562279 218.12869167 C326.91032392 219.76378905 325.97131788 221.39119256 325.01994896 223.01126003 C323.00328169 226.46209918 321.0421904 229.9370852 319.10906029 233.4353323 C314.46915149 241.68630055 309.04146299 249.41298467 303.67473412 257.20141506 C300.57370156 261.71572684 297.52028259 266.26206849 294.46062279 270.80447292 C293.2213194 272.64011117 291.98173576 274.47556025 290.74187279 276.31082058 C290.12779564 277.21995205 289.51371849 278.12908352 288.88103294 279.06576443 C287.64505403 280.89549234 286.40905153 282.72520433 285.17302513 284.55490017 C280.89267794 290.89117888 276.61353812 297.22827085 272.33562279 303.56619167 C271.73876671 304.45023678 271.14191063 305.33428188 270.526968 306.24511623 C263.93727749 316.00773234 257.36741672 325.78295546 250.84343529 335.58962917 C250.2602906 336.46599026 249.67714592 337.34235134 249.07633018 338.24526882 C246.32912863 342.3753481 243.58518176 346.5075343 240.84660912 350.64334011 C235.50270528 358.69883296 230.05035642 366.65784825 224.44875145 374.53634548 C219.66956193 381.27497253 215.08058844 388.13192632 210.52205467 395.02105618 C207.94013447 398.92177485 205.34863281 402.8161217 202.75749779 406.71072292 C202.21216896 407.53058178 201.66684013 408.35044064 201.10498619 409.1951437 C194.7220379 418.78338709 188.28071677 428.33215763 181.83562279 437.87869167 C181.23017632 438.77561733 180.62472984 439.67254299 180.00093651 440.59664822 C176.91075515 445.17428193 173.81990377 449.75146266 170.72868919 454.3283987 C167.06821122 459.74868716 163.41044217 465.17079926 159.75359154 470.59353542 C159.15656425 471.47886456 158.55953697 472.36419369 157.94441795 473.27635098 C155.53453514 476.85009187 153.12476719 480.42391021 150.71501732 483.99774075 C144.6489818 492.99395385 138.5822975 501.98972003 132.50888634 510.98095608 C129.45041481 515.50888393 126.39286806 520.03743579 123.33562279 524.56619167 C122.73831352 525.45087124 122.14100426 526.3355508 121.52559471 527.24703884 C114.93636614 537.00901609 108.36698021 546.78361162 101.84343529 556.58962917 C101.2602906 557.46599026 100.67714592 558.34235134 100.07633018 559.24526882 C97.32912863 563.3753481 94.58518176 567.5075343 91.84660912 571.64334011 C86.50270528 579.69883296 81.05035642 587.65784825 75.44875145 595.53634548 C70.66956193 602.27497253 66.08058844 609.13192632 61.52205467 616.02105618 C58.94013447 619.92177485 56.34863281 623.8161217 53.75749779 627.71072292 C53.21216896 628.53058178 52.66684013 629.35044064 52.10498619 630.1951437 C45.7220379 639.78338709 39.28071677 649.33215763 32.83562279 658.87869167 C32.23017632 659.77561733 31.62472984 660.67254299 31.00093651 661.59664822 C27.91075515 666.17428193 24.81990377 670.75146266 21.72868919 675.3283987 C18.06821122 680.74868716 14.41044217 686.17079926 10.75359154 691.59353542 C10.15656425 692.47886456 9.55953697 693.36419369 8.94441795 694.27635098 C6.53453514 697.85009187 4.12476719 701.42391021 1.71501732 704.99774075 C-4.35102845 713.99396905 -10.41772367 722.98974999 -16.49114418 731.98100185 C-19.5496059 736.5089142 -22.60715017 741.03744561 -25.66437721 745.56619167 C-26.26235115 746.45186825 -26.86032509 747.33754482 -27.47641945 748.25006008 C-36.8991979 762.21018659 -46.24733653 776.21873061 -55.57059669 790.24545193 C-62.03773458 799.97048407 -68.55299484 809.64832943 -75.31134987 819.17459011 C-80.22812927 826.11463907 -84.93747216 833.18792999 -89.62629128 840.28347683 C-90.18155495 841.12313992 -90.73681862 841.962803 -91.30890846 842.82791042 C-91.80108864 843.57516384 -92.29326881 844.32241726 -92.80036354 845.09231472 C-93.97687721 846.81619167 -93.97687721 846.81619167 -94.97687721 847.81619167 C-96.51986677 847.91588501 -98.06739044 847.94699779 -99.61359596 847.94900417 C-101.07055885 847.95093777 -101.07055885 847.95093777 -102.55695534 847.95291042 C-103.58240456 847.94904324 -104.60785378 847.94517605 -105.66437721 847.94119167 C-106.63955299 847.94505886 -107.61472878 847.94892605 -108.61945534 847.95291042 C-110.65030197 847.95026092 -112.68123441 847.92334181 -114.71149635 847.87454128 C-117.00731911 847.83351686 -119.30499275 847.86425408 -121.59967995 847.94729519 C-130.57627615 847.96104372 -130.57627615 847.96104372 -134.2779026 844.9353323 C-136.34639749 842.23019326 -138.00747521 839.47875851 -139.66437721 836.50369167 C-140.67601509 834.84659008 -141.68779204 833.18956312 -142.7055912 831.53623867 C-143.77038205 829.7961649 -144.815399 828.04519104 -145.85968971 826.29275417 C-148.8759455 821.28234864 -152.1995099 816.48291844 -155.51822853 811.66958523 C-157.52441437 808.75365284 -159.50929938 805.82326696 -161.49640846 802.89431667 C-162.13513641 801.95389523 -162.13513641 801.95389523 -162.78676796 800.99447536 C-168.82923732 792.09492276 -174.83880586 783.17311896 -180.85187721 774.25369167 C-181.76889915 772.89355953 -181.76889915 772.89355953 -182.70444679 771.50594997 C-187.76804833 763.99545903 -192.83061762 756.48427245 -197.89313698 748.97305202 C-198.52469704 748.03602444 -199.1562571 747.09899685 -199.80695534 746.13357449 C-200.43689903 745.19892864 -201.06684273 744.2642828 -201.71587563 743.30131435 C-202.98022728 741.42565057 -204.24476284 739.55011074 -205.50948524 737.67469692 C-208.58778821 733.10990479 -211.6638339 728.54363245 -214.73444557 723.97366238 C-220.12331396 715.9601901 -225.54043307 707.97321062 -231.09015846 700.07009792 C-232.44376919 698.12918929 -233.79625052 696.18749857 -235.14844704 694.24560452 C-236.37703742 692.49441452 -237.62466104 690.75803899 -238.87384987 689.02151394 C-239.94385231 687.48515285 -239.94385231 687.48515285 -241.03547096 685.91775417 C-241.9683091 684.60798611 -241.9683091 684.60798611 -242.91999245 683.27175808 C-243.97687721 680.81619167 -243.97687721 680.81619167 -243.44953346 678.44387722 C-241.56529452 675.08179769 -239.51203506 671.86278341 -237.35578346 668.67166042 C-236.89638878 667.98421246 -236.43699409 667.29676449 -235.96367836 666.58848476 C-234.49321511 664.39063486 -233.01630376 662.197202 -231.53937721 660.00369167 C-230.58129329 658.5723198 -229.62360756 657.14068131 -228.66633034 655.7087698 C-223.5791052 648.11068038 -218.43433819 640.55419209 -213.2438755 633.02633572 C-207.24003843 624.30992245 -201.33020967 615.52995384 -195.41437721 606.75369167 C-194.48252098 605.37229 -194.48252098 605.37229 -193.53183937 603.96298122 C-186.56876049 593.63973401 -179.62388158 583.30481641 -172.72687721 572.93728542 C-171.85882202 571.63273655 -171.85882202 571.63273655 -170.97323036 570.30183315 C-168.24645592 566.20237115 -165.52301478 562.10074969 -162.80475807 557.99563503 C-157.4593689 549.93795379 -152.00564366 541.97669096 -146.40250587 534.09603786 C-141.62331635 527.35741082 -137.03434286 520.50045702 -132.4758091 513.61132717 C-129.8938889 509.71060849 -127.30238723 505.81626165 -124.71125221 501.92166042 C-123.89325897 500.69187214 -123.89325897 500.69187214 -123.05874062 499.43723965 C-116.6757911 489.84899443 -110.23427185 480.30036215 -103.78937721 470.75369167 C-103.18492775 469.85809536 -102.58047829 468.96249905 -101.95771217 468.03976345 C-97.01588331 460.71777708 -92.07165783 453.39741037 -87.12677956 446.07748318 C-82.84643236 439.74120447 -78.56728149 433.40411996 -74.28937721 427.06619167 C-73.69185646 426.18114956 -73.09433571 425.29610744 -72.47870827 424.38424587 C-63.05207249 410.41846964 -53.70025018 396.40416574 -44.37308693 382.37182522 C-38.12204452 372.97191988 -31.81928089 363.62575391 -25.28400612 354.42019558 C-19.67032017 346.46986561 -14.30041395 338.3589857 -8.91437721 330.25369167 C0.07901049 316.72078446 9.11902629 303.22084209 18.21062279 289.75369167 C18.81259483 288.86181149 19.41456688 287.9699313 20.0347805 287.05102444 C23.73533397 281.56851063 27.43713592 276.08684079 31.13933372 270.60543728 C36.2224061 263.07915019 41.30375055 255.551698 46.38362694 248.02325344 C48.12308182 245.44590122 49.86346249 242.86917624 51.60393333 240.29251003 C58.25735771 230.43607945 64.87230172 220.55459091 71.46574974 210.65798855 C72.30064229 209.4051879 73.13555479 208.15240055 73.97048759 206.89962673 C75.98826195 203.8719678 78.00576892 200.84413081 80.02312279 197.81619167 C60.25926454 197.44194565 40.49539958 197.06805526 20.73152733 196.69454956 C10.65161588 196.5040469 0.57170757 196.31338012 -9.50819588 196.12245429 C-16.61451423 195.98787207 -23.72083892 195.85362685 -30.8271656 195.71948564 C-36.08373902 195.62020793 -41.34030156 195.52037519 -46.59685707 195.42015445 C-62.54495394 195.11633046 -78.49299598 194.81711899 -94.44198418 194.56370699 C-96.48376412 194.53112296 -98.52553387 194.49796713 -100.5673008 194.46457863 C-106.69107118 194.36451746 -112.81483365 194.26797406 -118.93879128 194.18009853 C-121.04393818 194.14618174 -123.14908167 194.11205232 -125.25422096 194.07766628 C-126.19468773 194.06592058 -127.1351545 194.05417488 -128.10412025 194.04207325 C-128.96052605 194.02710615 -129.81693184 194.01213905 -130.69928932 193.99671841 C-131.43489586 193.98588695 -132.1705024 193.97505548 -132.92840004 193.9638958 C-135.04376723 193.81136861 -136.93900061 193.39100174 -138.97687721 192.81619167 C-137.62223782 189.00708985 -135.89771055 186.1235188 -133.45734596 182.90994167 C-130.32503842 178.68945093 -127.30936139 174.41311259 -124.40265846 170.03494167 C-124.00060188 169.42955563 -123.5985453 168.82416958 -123.18430519 168.2004385 C-122.33274343 166.91591286 -121.48192529 165.630894 -120.63178444 164.34542751 C-118.23326458 160.71973006 -115.82580642 157.09997736 -113.41828346 153.48025417 C-112.9038166 152.70658504 -112.38934975 151.93291592 -111.85929298 151.13580227 C-105.52727982 141.62364938 -99.1247478 132.15910934 -92.72687721 122.69119167 C-83.10865967 108.45696198 -73.54810387 94.18627344 -64.03937721 79.87869167 C-57.20578685 69.59719418 -50.35057117 59.34696434 -43.19391823 49.28616238 C-36.44741026 39.75203117 -30.05121494 29.97610366 -23.6126194 20.23269558 C-22.92356514 19.19276958 -22.92356514 19.19276958 -22.22059059 18.13183498 C-21.36281316 16.83710504 -20.50696536 15.54109339 -19.65357399 14.24346828 C-18.88131894 13.07871287 -18.09739778 11.92156794 -17.29945823 10.77425564 C-16.41156303 9.45973836 -15.5691472 8.11343659 -14.77308426 6.74135884 C-10.70040481 0.29772508 -7.3635563 -0.3021507 0 0 Z " fill="#FFFFFF" transform="translate(651.9768772125244,425.1838083267212)"/>
</svg>
